<svg width="347.43125px" height="122px" xmlns="http://www.w3.org/2000/svg" viewBox="76.28437500000001 14 347.43125 122" style="background: rgba(0, 0, 0, 0);" preserveAspectRatio="xMidYMid"><defs><filter id="editing-jagged" x="-100%" y="-100%" width="300%" height="300%"><feTurbulence result="turb" baseFrequency="0.1" numOctaves="1" seed="1"></feTurbulence><feDisplacementMap in="SourceGraphic" in2="turb" scale="10"></feDisplacementMap></filter></defs><g filter="url(#editing-jagged)"><g transform="translate(129.2649848461151, 104.79000091552734)"><path d="M2.11-6.40L2.11-6.40L2.11-6.40Q2.11-8.13 3.01-12.48L3.01-12.48L6.40-29.76L2.62-29.76L2.88-31.68L2.88-31.68Q10.56-33.98 17.98-39.62L17.98-39.62L21.06-39.62L19.52-32.64L24.51-32.64L23.94-29.76L19.01-29.76L15.74-12.48L15.74-12.48Q14.91-8.51 14.91-7.17L14.91-7.17L14.91-7.17Q14.91-4.10 17.60-3.46L17.60-3.46L17.60-3.46Q16.96-1.28 14.66 0L14.66 0L14.66 0Q12.35 1.28 9.09 1.28L9.09 1.28L9.09 1.28Q5.82 1.28 3.97-0.77L3.97-0.77L3.97-0.77Q2.11-2.82 2.11-6.40ZM39.55-3.52L39.55-3.52L39.55-3.52Q37.57 1.28 31.23 1.28L31.23 1.28L31.23 1.28Q27.97 1.28 25.92-0.96L25.92-0.96L25.92-0.96Q24.19-2.94 24.19-4.93L24.19-4.93L24.19-4.93Q24.19-10.11 26.56-20.22L26.56-20.22L28.93-32.64L41.92-33.92L38.02-13.70L38.02-13.70Q36.93-8.96 36.93-7.30L36.93-7.30L36.93-7.30Q36.93-3.65 39.55-3.52ZM30.08-41.54L30.08-41.54L30.08-41.54Q30.08-44.03 32.16-45.38L32.16-45.38L32.16-45.38Q34.24-46.72 37.25-46.72L37.25-46.72L37.25-46.72Q40.26-46.72 42.08-45.38L42.08-45.38L42.08-45.38Q43.90-44.03 43.90-41.54L43.90-41.54L43.90-41.54Q43.90-39.04 41.89-37.76L41.89-37.76L41.89-37.76Q39.87-36.48 36.86-36.48L36.86-36.48L36.86-36.48Q33.86-36.48 31.97-37.76L31.97-37.76L31.97-37.76Q30.08-39.04 30.08-41.54ZM61.50-30.34L61.50-30.34L61.50-30.34Q64.96-33.92 72.26-33.92L72.26-33.92L72.26-33.92Q76.29-33.92 78.50-31.78L78.50-31.78L78.50-31.78Q80.70-29.63 80.70-25.70L80.70-25.70L80.70-25.70Q80.70-21.76 78.50-18.98L78.50-18.98L78.50-18.98Q76.29-16.19 72.19-15.04L72.19-15.04L72.19-15.04Q72.51-13.76 72.96-12.42L72.96-12.42L73.86-9.86L73.86-9.86Q75.07-6.59 76.03-5.44L76.03-5.44L76.03-5.44Q76.99-4.29 78.27-3.90L78.27-3.90L78.27-3.90Q77.57-1.28 75.01 0.13L75.01 0.13L75.01 0.13Q72.96 1.28 70.14 1.28L70.14 1.28L70.14 1.28Q61.89 1.28 60.80-11.46L60.80-11.46L60.80-11.46Q60.61-13.25 60.61-15.04L60.61-15.04L60.61-15.04Q63.81-15.94 66.05-18.94L66.05-18.94L66.05-18.94Q68.29-21.95 68.29-25.47L68.29-25.47L68.29-25.47Q68.29-28.99 65.79-28.99L65.79-28.99L65.79-28.99Q64-28.99 62.59-27.01L62.59-27.01L62.59-27.01Q61.18-25.02 60.54-21.63L60.54-21.63L56.32 0L43.39 1.28L52.35-44.80L65.22-46.08L63.74-38.46L63.74-38.46Q62.78-33.09 61.50-30.34ZM104-7.23L104-7.23L104-7.23Q100.67-3.78 94.59-3.78L94.59-3.78L94.59-3.78Q86.98-3.78 85.38-9.34L85.38-9.34L85.38-9.34Q84.86-11.01 84.86-12.86L84.86-12.86L84.86-12.86Q84.86-14.72 85.25-16.64L85.25-16.64L88.26-32.64L101.25-33.92L97.73-15.30L97.73-15.30Q97.60-14.46 97.41-13.57L97.41-13.57L97.41-13.57Q97.22-12.67 97.22-11.74L97.22-11.74L97.22-11.74Q97.22-10.82 97.54-10.21L97.54-10.21L97.54-10.21Q97.86-9.60 98.30-9.22L98.30-9.22L98.30-9.22Q99.07-8.70 100.45-8.70L100.45-8.70L100.45-8.70Q101.82-8.70 103.01-10.37L103.01-10.37L103.01-10.37Q104.19-12.03 104.77-14.91L104.77-14.91L108.29-32.64L120.90-33.92L116.10-8.77L116.10-8.77Q113.73 3.52 108.86 8.38L108.86 8.38L108.86 8.38Q106.37 10.88 103.14 11.87L103.14 11.87L103.14 11.87Q99.90 12.86 95.74 12.86L95.74 12.86L95.74 12.86Q89.02 12.86 85.18 10.75L85.18 10.75L85.18 10.75Q81.34 8.64 81.34 5.12L81.34 5.12L81.34 5.12Q81.34 2.50 83.33 0.99L83.33 0.99L83.33 0.99Q85.31-0.51 88.38-0.51L88.38-0.51L88.38-0.51Q91.07-0.51 93.12 0.64L93.12 0.64L93.12 0.64Q94.34 1.34 94.91 2.24L94.91 2.24L94.91 2.24Q93.44 3.52 93.44 5.63L93.44 5.63L93.44 5.63Q93.44 8.45 96 8.45L96 8.45L96 8.45Q100.22 8.45 102.66-1.28L102.66-1.28L102.66-1.28Q103.36-4.16 104-7.23ZM125.98-1.92L125.98-1.92L125.98-1.92Q124.48-3.58 123.81-6.21L123.81-6.21L123.81-6.21Q123.14-8.83 123.14-13.12L123.14-13.12L123.14-13.12Q123.14-17.41 124.61-21.31L124.61-21.31L124.61-21.31Q126.08-25.22 128.77-28.03L128.77-28.03L128.77-28.03Q134.27-33.92 143.36-33.92L143.36-33.92L143.36-33.92Q146.62-33.92 148.99-32.83L148.99-32.83L159.94-33.92L155.20-8.96L155.20-8.96Q155.01-8.19 155.01-6.78L155.01-6.78L155.01-6.78Q155.01-5.38 155.87-4.48L155.87-4.48L155.87-4.48Q156.74-3.58 158.02-3.46L158.02-3.46L158.02-3.46Q157.38-1.28 155.04 0L155.04 0L155.04 0Q152.70 1.28 150.08 1.28L150.08 1.28L150.08 1.28Q147.46 1.28 145.70 0.29L145.70 0.29L145.70 0.29Q143.94-0.70 143.42-2.37L143.42-2.37L143.42-2.37Q142.40-0.77 140.22 0.26L140.22 0.26L140.22 0.26Q138.05 1.28 135.14 1.28L135.14 1.28L135.14 1.28Q132.22 1.28 129.86 0.51L129.86 0.51L129.86 0.51Q127.49-0.26 125.98-1.92ZM139.49-27.90L139.49-27.90L139.49-27.90Q138.75-26.75 138.11-24.80L138.11-24.80L138.11-24.80Q137.47-22.85 136.42-17.63L136.42-17.63L136.42-17.63Q135.36-12.42 135.36-8.70L135.36-8.70L135.36-8.70Q135.36-4.99 135.94-3.90L135.94-3.90L135.94-3.90Q136.51-2.82 137.54-2.82L137.54-2.82L137.54-2.82Q139.58-2.82 141.09-4.77L141.09-4.77L141.09-4.77Q142.59-6.72 143.17-10.18L143.17-10.18L146.56-28.93L146.56-28.93Q145.22-30.08 143.65-30.08L143.65-30.08L143.65-30.08Q142.08-30.08 141.15-29.57L141.15-29.57L141.15-29.57Q140.22-29.06 139.49-27.90ZM190.46 1.28L190.46 1.28L190.46 1.28Q182.72 1.28 182.72-4.74L182.72-4.74L182.72-4.74Q182.78-6.40 183.30-9.22L183.30-9.22L184.45-15.10L184.45-15.10Q186.18-23.42 186.18-25.28L186.18-25.28L186.18-25.28Q186.18-28.99 184-28.99L184-28.99L184-28.99Q180.35-28.99 178.43-19.46L178.43-19.46L174.66 0L161.79 1.28L168.45-32.70L178.94-33.92L177.92-27.65L177.92-27.65Q180.93-33.92 190.14-33.92L190.14-33.92L190.14-33.92Q194.62-33.92 196.51-32.03L196.51-32.03L196.51-32.03Q198.40-30.14 198.40-25.92L198.40-25.92L198.40-25.92Q198.40-21.95 196.35-12.67L196.35-12.67L196.35-12.67Q195.39-8.51 195.39-6.94L195.39-6.94L195.39-6.94Q195.39-5.38 196.26-4.48L196.26-4.48L196.26-4.48Q197.12-3.58 198.40-3.46L198.40-3.46L198.40-3.46Q197.76-1.28 195.55 0L195.55 0L195.55 0Q193.34 1.28 190.46 1.28ZM208.06-26.75L208.06-26.75L208.06-26.75Q210.24-29.82 213.54-31.87L213.54-31.87L213.54-31.87Q216.83-33.92 220.86-33.92L220.86-33.92L220.86-33.92Q224.90-33.92 226.82-32.64L226.82-32.64L239.36-33.92L235.01-9.34L235.01-9.34Q232.77 3.20 228.03 8.13L228.03 8.13L228.03 8.13Q223.49 12.80 214.66 12.80L214.66 12.80L214.66 12.80Q207.94 12.80 204.10 10.69L204.10 10.69L204.10 10.69Q200.26 8.58 200.26 5.06L200.26 5.06L200.26 5.06Q200.26 2.43 202.24 0.93L202.24 0.93L202.24 0.93Q204.22-0.58 207.30-0.58L207.30-0.58L207.30-0.58Q209.98-0.58 212.03 0.64L212.03 0.64L212.03 0.64Q213.25 1.28 213.82 2.18L213.82 2.18L213.82 2.18Q212.35 3.46 212.35 5.57L212.35 5.57L212.35 5.57Q212.35 8.32 214.91 8.32L214.91 8.32L214.91 8.32Q219.20 8.32 221.63-1.79L221.63-1.79L221.63-1.79Q222.34-4.54 222.91-7.30L222.91-7.30L222.91-7.30Q220.03-3.78 213.50-3.78L213.50-3.78L213.50-3.78Q208.96-3.78 206.34-5.95L206.34-5.95L206.34-5.95Q203.71-8.13 203.71-13.25L203.71-13.25L203.71-13.25Q203.71-16.45 204.80-20.06L204.80-20.06L204.80-20.06Q205.89-23.68 208.06-26.75ZM216.38-13.06L216.38-13.06L216.38-13.06Q216.38-8.70 218.62-8.70L218.62-8.70L218.62-8.70Q220.16-8.70 221.63-10.37L221.63-10.37L221.63-10.37Q222.78-11.71 223.23-13.70L223.23-13.70L226.50-30.14L226.50-30.14Q226.18-30.21 225.86-30.34L225.86-30.34L225.86-30.34Q225.22-30.59 224.38-30.59L224.38-30.59L224.38-30.59Q220.48-30.59 218.18-24.19L218.18-24.19L218.18-24.19Q216.38-19.20 216.38-13.06Z" fill="#444"></path></g></g><style>text {
  font-size: 64px;
  font-family: Arial Black;
  dominant-baseline: central;
  text-anchor: middle;
}</style></svg>