<svg width="376.655615234375px" height="122px" xmlns="http://www.w3.org/2000/svg" viewBox="61.67219238281251 14 376.655615234375 122" style="background: rgba(0, 0, 0, 0);" preserveAspectRatio="xMidYMid"><defs><filter id="editing-vr"><feFlood flood-color="#f00" flood-opacity="0.7" result="c1"></feFlood><feFlood flood-color="#00f" flood-opacity="0.7" result="c3"></feFlood><feComposite operator="in" in="c1" in2="SourceAlpha" result="text-c1"></feComposite><feComposite operator="in" in="c3" in2="SourceAlpha" result="text-c3"></feComposite><feOffset in="text-c1" dx="5" dy="-1" result="text1"></feOffset><feOffset in="text-c3" dx="-5" dy="1" result="text3"></feOffset><feBlend in="SourceGraphic" in2="text1" mode="multiply" result="text4"></feBlend><feBlend in="text4" in2="text3" mode="multiply"></feBlend></filter></defs><g filter="url(#editing-vr)"><g transform="translate(117.70358896255493, 97.46500015258789)"><path d="M6.21-31.17L6.21-31.17L6.21-31.17Q4.03-32.83 4.03-36.38L4.03-36.38L4.03-36.38Q4.03-39.94 6.37-41.79L6.37-41.79L6.37-41.79Q8.70-43.65 12.74-43.65L12.74-43.65L12.74-43.65Q15.30-43.65 21.38-42.75L21.38-42.75L25.73-42.11L25.73-42.11Q27.90-41.86 30.18-41.86L30.18-41.86L30.18-41.86Q32.45-41.86 33.98-42.82L33.98-42.82L33.98-42.82Q36.29-40.77 36.29-37.82L36.29-37.82L36.29-37.82Q36.29-34.88 33.66-32.77L33.66-32.77L33.66-32.77Q30.98-30.53 27.52-30.53L27.52-30.53L27.52-30.53Q25.86-30.53 23.17-30.98L23.17-30.98L23.17-30.98Q20.03-21.12 20.03-14.27L20.03-14.27L20.03-14.27Q20.03-7.42 23.49-3.84L23.49-3.84L23.49-3.84Q21.89-0.96 19.52 0.16L19.52 0.16L19.52 0.16Q17.15 1.28 13.60 1.28L13.60 1.28L13.60 1.28Q10.05 1.28 7.84-0.67L7.84-0.67L7.84-0.67Q5.63-2.62 5.63-6.66L5.63-6.66L5.63-6.66Q5.63-11.33 8.19-19.01L8.19-19.01L8.19-19.01Q10.75-26.62 14.59-32.45L14.59-32.45L14.59-32.45Q12.74-32.64 10.82-32.64L10.82-32.64L10.82-32.64Q6.85-32.64 6.21-31.17ZM47.49 0L33.54 0L41.66-42.24L55.74-42.24L47.49 0ZM70.21 0L56.58 0L63.87-38.91L64.58-42.24L78.27-42.24L70.21 0ZM96.19-3.78L96.19-3.78L96.19-3.78Q94.46 1.28 87.81 1.28L87.81 1.28L87.81 1.28Q82.88 1.28 79.49-4.61L79.49-4.61L79.49-4.61Q76.03-10.50 75.39-20.10L75.39-20.10L75.39-20.10Q82.43-32.96 87.30-38.27L87.30-38.27L87.30-38.27Q91.97-43.33 96.83-43.33L96.83-43.33L96.83-43.33Q99.46-43.33 101.34-41.92L101.34-41.92L101.34-41.92Q103.23-40.51 103.68-38.27L103.68-38.27L103.68-38.27Q101.50-37.38 100.48-36.67L100.48-36.67L100.48-36.67Q97.92-34.75 94.46-30.46L94.46-30.46L88.64-23.49L88.64-23.49Q87.23-21.82 86.66-21.06L86.66-21.06L86.66-21.06Q87.62-15.68 90.50-10.37L90.50-10.37L90.50-10.37Q93.25-5.31 96.19-3.78ZM107.71 0L111.42-18.82L111.42-18.82Q109.57-36.16 103.04-39.87L103.04-39.87L103.04-39.87Q104.38-41.54 106.56-42.46L106.56-42.46L106.56-42.46Q108.74-43.39 111.36-43.39L111.36-43.39L111.36-43.39Q113.98-43.39 115.97-42.46L115.97-42.46L115.97-42.46Q117.95-41.54 119.23-39.55L119.23-39.55L119.23-39.55Q121.66-35.78 121.66-26.75L121.66-26.75L121.66-22.14L121.66-22.14Q125.50-33.41 129.34-38.27L129.34-38.27L129.34-38.27Q133.25-43.26 138.11-43.26L138.11-43.26L138.11-43.26Q140.03-43.26 141.31-42.27L141.31-42.27L141.31-42.27Q142.59-41.28 143.23-39.81L143.23-39.81L143.23-39.81Q138.30-37.63 133.57-31.36L133.57-31.36L133.57-31.36Q128.83-25.09 125.76-16.32L125.76-16.32L121.98 0L107.71 0ZM165.25 1.28L165.25 1.28L165.25 1.28Q157.06 1.28 156.29-10.37L156.29-10.37L145.28-10.37L145.28-10.37Q144.00-7.42 143.10-4.86L143.10-4.86L141.44 0L132.48 0L152.64-42.24L166.40-42.24L169.09-11.14L169.09-11.14Q169.73-4.42 172.29-2.43L172.29-2.43L172.29-2.43Q170.43 1.28 165.25 1.28ZM150.78-23.17L147.26-15.04L156.10-15.04L155.33-31.49L155.33-33.22L150.78-23.17ZM182.59 0L175.55 0L183.23-42.24L196.99-42.24L206.98-13.18L212.29-42.24L219.39-42.18L211.58 0L196.93 0L187.71-27.97L182.59 0ZM246.91-20.61L259.84-21.76L259.84-21.76Q255.23-11.65 255.23 0.06L255.23 0.06L255.23 0.06Q253.50 1.28 250.98 1.28L250.98 1.28L250.98 1.28Q248.45 1.28 246.85 0.10L246.85 0.10L246.85 0.10Q245.25-1.09 244.93-2.30L244.93-2.30L244.93-2.30Q243.33-0.64 240.74 0.32L240.74 0.32L240.74 0.32Q238.14 1.28 235.39 1.28L235.39 1.28L235.39 1.28Q232.64 1.28 230.24 0.38L230.24 0.38L230.24 0.38Q227.84-0.51 225.98-2.50L225.98-2.50L225.98-2.50Q221.89-6.85 221.89-15.10L221.89-15.10L221.89-15.10Q221.89-27.90 228.74-35.58L228.74-35.58L228.74-35.58Q235.78-43.52 248.26-43.52L248.26-43.52L248.26-43.52Q256.90-43.52 259.97-39.04L259.97-39.04L259.97-39.04Q260.93-37.63 260.93-35.94L260.93-35.94L260.93-35.94Q260.93-34.24 260.19-32.80L260.19-32.80L260.19-32.80Q259.46-31.36 258.30-30.21L258.30-30.21L258.30-30.21Q255.55-27.65 252.16-27.65L252.16-27.65L252.16-27.65Q250.82-27.65 249.54-28.10L249.54-28.10L249.54-28.10Q249.79-30.02 249.79-32.26L249.79-32.26L249.79-32.26Q249.79-34.50 249.63-35.52L249.63-35.52L249.63-35.52Q249.47-36.54 249.09-37.38L249.09-37.38L249.09-37.38Q248.26-39.10 246.43-39.10L246.43-39.10L246.43-39.10Q244.61-39.10 242.59-37.15L242.59-37.15L242.59-37.15Q240.58-35.20 238.98-32L238.98-32L238.98-32Q235.46-24.83 235.46-16.19L235.46-16.19L235.46-16.19Q235.46-12.22 236.99-9.41L236.99-9.41L236.99-9.41Q238.66-6.34 241.60-6.34L241.60-6.34L241.60-6.34Q242.62-6.34 243.55-6.85L243.55-6.85L243.55-6.85Q244.48-7.36 244.86-7.74L244.86-7.74L246.91-20.61Z" fill="#444"></path></g></g><style>text {
  font-size: 64px;
  font-family: Arial Black;
  dominant-baseline: central;
  text-anchor: middle;
}</style></svg>